<svg width="266" height="337" viewBox="0 0 266 337" fill="none" xmlns="http://www.w3.org/2000/svg">
<path opacity="0.1" fill-rule="evenodd" clip-rule="evenodd" d="M-61.0574 10.9103C-46.4672 -3.63676 -22.8118 -3.63676 -8.22158 10.9103L97 115.821L202.222 10.9103C216.812 -3.63676 240.467 -3.63676 255.057 10.9103C269.648 25.4573 269.648 49.0427 255.057 63.5897L149.836 168.5L255.057 273.41C269.648 287.957 269.648 311.543 255.057 326.09C240.467 340.637 216.812 340.637 202.222 326.09L97 221.179L-8.22158 326.09C-22.8118 340.637 -46.4672 340.637 -61.0574 326.09C-75.6475 311.543 -75.6475 287.957 -61.0574 273.41L44.1642 168.5L-61.0574 63.5897C-75.6475 49.0427 -75.6475 25.4573 -61.0574 10.9103Z" fill="black"/>
</svg>
